<mxfile host="app.diagrams.net" agent="Mozilla/5.0 (Windows NT 10.0; Win64; x64) AppleWebKit/537.36 (KHTML, like Gecko) Chrome/130.0.0.0 Safari/537.36" version="24.8.6" pages="2">
  <diagram id="K1aunflbVc0yebGEWN8c" name="Page-4">
    <mxGraphModel dx="1674" dy="738" grid="1" gridSize="10" guides="1" tooltips="1" connect="1" arrows="1" fold="1" page="1" pageScale="1" pageWidth="827" pageHeight="1169" math="0" shadow="0">
      <root>
        <mxCell id="0" />
        <mxCell id="1" parent="0" />
      </root>
    </mxGraphModel>
  </diagram>
  <diagram id="NrvYDbjZl91lwNhKPlTk" name="Page-2">
    <mxGraphModel dx="2501" dy="738" grid="1" gridSize="10" guides="1" tooltips="1" connect="1" arrows="1" fold="1" page="1" pageScale="1" pageWidth="827" pageHeight="1169" math="0" shadow="0">
      <root>
        <mxCell id="0" />
        <mxCell id="1" parent="0" />
        <mxCell id="-hIAZdkFqz0Q5zqzDOxr-1" value="" style="rounded=0;whiteSpace=wrap;html=1;" parent="1" vertex="1">
          <mxGeometry x="100" y="60" width="680" height="140" as="geometry" />
        </mxCell>
        <mxCell id="-hIAZdkFqz0Q5zqzDOxr-3" value="ADF" style="rounded=0;whiteSpace=wrap;html=1;" parent="1" vertex="1">
          <mxGeometry x="290" y="85" width="120" height="60" as="geometry" />
        </mxCell>
        <mxCell id="-hIAZdkFqz0Q5zqzDOxr-4" value="SSIS" style="rounded=0;whiteSpace=wrap;html=1;" parent="1" vertex="1">
          <mxGeometry x="464" y="80" width="126" height="70" as="geometry" />
        </mxCell>
        <mxCell id="-hIAZdkFqz0Q5zqzDOxr-14" style="edgeStyle=orthogonalEdgeStyle;rounded=0;orthogonalLoop=1;jettySize=auto;html=1;" parent="1" source="-hIAZdkFqz0Q5zqzDOxr-5" target="-hIAZdkFqz0Q5zqzDOxr-13" edge="1">
          <mxGeometry relative="1" as="geometry" />
        </mxCell>
        <mxCell id="-hIAZdkFqz0Q5zqzDOxr-5" value="Backend&amp;nbsp; Aplications" style="rounded=0;whiteSpace=wrap;html=1;" parent="1" vertex="1">
          <mxGeometry x="640" y="90" width="120" height="60" as="geometry" />
        </mxCell>
        <mxCell id="-hIAZdkFqz0Q5zqzDOxr-9" style="edgeStyle=orthogonalEdgeStyle;rounded=0;orthogonalLoop=1;jettySize=auto;html=1;entryX=0.25;entryY=0;entryDx=0;entryDy=0;" parent="1" source="-hIAZdkFqz0Q5zqzDOxr-6" target="-hIAZdkFqz0Q5zqzDOxr-8" edge="1">
          <mxGeometry relative="1" as="geometry" />
        </mxCell>
        <mxCell id="-hIAZdkFqz0Q5zqzDOxr-6" value="SQL Scripts" style="rounded=0;whiteSpace=wrap;html=1;" parent="1" vertex="1">
          <mxGeometry x="120" y="85" width="120" height="60" as="geometry" />
        </mxCell>
        <mxCell id="-hIAZdkFqz0Q5zqzDOxr-8" value="Data Pipeline Repository" style="rounded=0;whiteSpace=wrap;html=1;" parent="1" vertex="1">
          <mxGeometry x="190" y="310" width="120" height="60" as="geometry" />
        </mxCell>
        <mxCell id="-hIAZdkFqz0Q5zqzDOxr-10" style="edgeStyle=orthogonalEdgeStyle;rounded=0;orthogonalLoop=1;jettySize=auto;html=1;entryX=0.75;entryY=0;entryDx=0;entryDy=0;" parent="1" source="-hIAZdkFqz0Q5zqzDOxr-3" target="-hIAZdkFqz0Q5zqzDOxr-8" edge="1">
          <mxGeometry relative="1" as="geometry" />
        </mxCell>
        <mxCell id="-hIAZdkFqz0Q5zqzDOxr-12" style="edgeStyle=orthogonalEdgeStyle;rounded=0;orthogonalLoop=1;jettySize=auto;html=1;entryX=0.833;entryY=0;entryDx=0;entryDy=0;entryPerimeter=0;" parent="1" source="-hIAZdkFqz0Q5zqzDOxr-1" target="-hIAZdkFqz0Q5zqzDOxr-8" edge="1">
          <mxGeometry relative="1" as="geometry" />
        </mxCell>
        <mxCell id="-hIAZdkFqz0Q5zqzDOxr-26" style="edgeStyle=orthogonalEdgeStyle;rounded=0;orthogonalLoop=1;jettySize=auto;html=1;" parent="1" target="-hIAZdkFqz0Q5zqzDOxr-24" edge="1">
          <mxGeometry relative="1" as="geometry">
            <mxPoint x="680" y="400" as="sourcePoint" />
          </mxGeometry>
        </mxCell>
        <mxCell id="-hIAZdkFqz0Q5zqzDOxr-13" value="Application Code Repository" style="rounded=0;whiteSpace=wrap;html=1;" parent="1" vertex="1">
          <mxGeometry x="610" y="340" width="120" height="60" as="geometry" />
        </mxCell>
        <mxCell id="-hIAZdkFqz0Q5zqzDOxr-28" style="edgeStyle=orthogonalEdgeStyle;rounded=0;orthogonalLoop=1;jettySize=auto;html=1;entryX=0;entryY=0.5;entryDx=0;entryDy=0;" parent="1" source="-hIAZdkFqz0Q5zqzDOxr-17" target="-hIAZdkFqz0Q5zqzDOxr-27" edge="1">
          <mxGeometry relative="1" as="geometry" />
        </mxCell>
        <mxCell id="-hIAZdkFqz0Q5zqzDOxr-17" value="Developer" style="rounded=0;whiteSpace=wrap;html=1;" parent="1" vertex="1">
          <mxGeometry x="-818" y="510" width="120" height="60" as="geometry" />
        </mxCell>
        <mxCell id="-hIAZdkFqz0Q5zqzDOxr-52" style="edgeStyle=orthogonalEdgeStyle;rounded=0;orthogonalLoop=1;jettySize=auto;html=1;" parent="1" source="-hIAZdkFqz0Q5zqzDOxr-20" target="-hIAZdkFqz0Q5zqzDOxr-51" edge="1">
          <mxGeometry relative="1" as="geometry" />
        </mxCell>
        <mxCell id="-hIAZdkFqz0Q5zqzDOxr-20" value="Dev" style="rounded=0;whiteSpace=wrap;html=1;" parent="1" vertex="1">
          <mxGeometry x="-230" y="500" width="120" height="60" as="geometry" />
        </mxCell>
        <mxCell id="-hIAZdkFqz0Q5zqzDOxr-21" value="Prod" style="rounded=0;whiteSpace=wrap;html=1;" parent="1" vertex="1">
          <mxGeometry x="170" y="492" width="120" height="60" as="geometry" />
        </mxCell>
        <mxCell id="-hIAZdkFqz0Q5zqzDOxr-23" value="Prod" style="rounded=0;whiteSpace=wrap;html=1;" parent="1" vertex="1">
          <mxGeometry x="440" y="554" width="120" height="60" as="geometry" />
        </mxCell>
        <mxCell id="-hIAZdkFqz0Q5zqzDOxr-55" style="edgeStyle=orthogonalEdgeStyle;rounded=0;orthogonalLoop=1;jettySize=auto;html=1;" parent="1" source="-hIAZdkFqz0Q5zqzDOxr-24" target="-hIAZdkFqz0Q5zqzDOxr-54" edge="1">
          <mxGeometry relative="1" as="geometry" />
        </mxCell>
        <mxCell id="-hIAZdkFqz0Q5zqzDOxr-24" value="Dev" style="rounded=0;whiteSpace=wrap;html=1;" parent="1" vertex="1">
          <mxGeometry x="840" y="570" width="120" height="60" as="geometry" />
        </mxCell>
        <mxCell id="-hIAZdkFqz0Q5zqzDOxr-25" style="edgeStyle=orthogonalEdgeStyle;rounded=0;orthogonalLoop=1;jettySize=auto;html=1;entryX=0.55;entryY=0.15;entryDx=0;entryDy=0;entryPerimeter=0;" parent="1" source="-hIAZdkFqz0Q5zqzDOxr-13" target="-hIAZdkFqz0Q5zqzDOxr-23" edge="1">
          <mxGeometry relative="1" as="geometry" />
        </mxCell>
        <mxCell id="-hIAZdkFqz0Q5zqzDOxr-27" value="Feature Branch&lt;div&gt;&lt;br&gt;&lt;/div&gt;" style="rounded=1;whiteSpace=wrap;html=1;" parent="1" vertex="1">
          <mxGeometry x="-610" y="500" width="120" height="60" as="geometry" />
        </mxCell>
        <mxCell id="-hIAZdkFqz0Q5zqzDOxr-31" style="edgeStyle=orthogonalEdgeStyle;rounded=0;orthogonalLoop=1;jettySize=auto;html=1;" parent="1" source="-hIAZdkFqz0Q5zqzDOxr-30" target="-hIAZdkFqz0Q5zqzDOxr-20" edge="1">
          <mxGeometry relative="1" as="geometry" />
        </mxCell>
        <mxCell id="-hIAZdkFqz0Q5zqzDOxr-32" value="Yes" style="edgeLabel;html=1;align=center;verticalAlign=middle;resizable=0;points=[];" parent="-hIAZdkFqz0Q5zqzDOxr-31" vertex="1" connectable="0">
          <mxGeometry x="-0.36" y="-1" relative="1" as="geometry">
            <mxPoint as="offset" />
          </mxGeometry>
        </mxCell>
        <mxCell id="-hIAZdkFqz0Q5zqzDOxr-34" value="Developer" style="rounded=0;whiteSpace=wrap;html=1;" parent="1" vertex="1">
          <mxGeometry x="1540" y="546" width="120" height="60" as="geometry" />
        </mxCell>
        <mxCell id="-hIAZdkFqz0Q5zqzDOxr-42" style="edgeStyle=orthogonalEdgeStyle;rounded=0;orthogonalLoop=1;jettySize=auto;html=1;entryX=0.918;entryY=0.361;entryDx=0;entryDy=0;entryPerimeter=0;" parent="1" source="-hIAZdkFqz0Q5zqzDOxr-36" target="-hIAZdkFqz0Q5zqzDOxr-37" edge="1">
          <mxGeometry relative="1" as="geometry">
            <mxPoint x="1120" y="492" as="targetPoint" />
          </mxGeometry>
        </mxCell>
        <mxCell id="-hIAZdkFqz0Q5zqzDOxr-36" value="Feature Branch&lt;div&gt;&lt;br&gt;&lt;/div&gt;" style="rounded=1;whiteSpace=wrap;html=1;" parent="1" vertex="1">
          <mxGeometry x="1310" y="540" width="120" height="60" as="geometry" />
        </mxCell>
        <mxCell id="-hIAZdkFqz0Q5zqzDOxr-40" style="edgeStyle=orthogonalEdgeStyle;rounded=0;orthogonalLoop=1;jettySize=auto;html=1;entryX=1;entryY=0.5;entryDx=0;entryDy=0;" parent="1" source="-hIAZdkFqz0Q5zqzDOxr-37" target="-hIAZdkFqz0Q5zqzDOxr-24" edge="1">
          <mxGeometry relative="1" as="geometry" />
        </mxCell>
        <mxCell id="-hIAZdkFqz0Q5zqzDOxr-43" value="Yes" style="edgeLabel;html=1;align=center;verticalAlign=middle;resizable=0;points=[];" parent="-hIAZdkFqz0Q5zqzDOxr-40" vertex="1" connectable="0">
          <mxGeometry x="-0.0635" relative="1" as="geometry">
            <mxPoint as="offset" />
          </mxGeometry>
        </mxCell>
        <mxCell id="-hIAZdkFqz0Q5zqzDOxr-37" value="Code Review&amp;nbsp;&lt;br&gt;Approve" style="rhombus;whiteSpace=wrap;html=1;" parent="1" vertex="1">
          <mxGeometry x="1110" y="550" width="80" height="80" as="geometry" />
        </mxCell>
        <mxCell id="-hIAZdkFqz0Q5zqzDOxr-38" style="edgeStyle=orthogonalEdgeStyle;rounded=0;orthogonalLoop=1;jettySize=auto;html=1;entryX=0.95;entryY=0.517;entryDx=0;entryDy=0;entryPerimeter=0;" parent="1" source="-hIAZdkFqz0Q5zqzDOxr-34" target="-hIAZdkFqz0Q5zqzDOxr-36" edge="1">
          <mxGeometry relative="1" as="geometry" />
        </mxCell>
        <mxCell id="-hIAZdkFqz0Q5zqzDOxr-45" value="" style="edgeStyle=orthogonalEdgeStyle;rounded=0;orthogonalLoop=1;jettySize=auto;html=1;" parent="1" source="-hIAZdkFqz0Q5zqzDOxr-27" target="-hIAZdkFqz0Q5zqzDOxr-30" edge="1">
          <mxGeometry relative="1" as="geometry">
            <mxPoint x="-318" y="590" as="targetPoint" />
            <mxPoint x="-458" y="540" as="sourcePoint" />
          </mxGeometry>
        </mxCell>
        <mxCell id="-hIAZdkFqz0Q5zqzDOxr-30" value="Code Review&amp;nbsp;&lt;br&gt;Approve" style="rhombus;whiteSpace=wrap;html=1;" parent="1" vertex="1">
          <mxGeometry x="-410" y="490" width="80" height="80" as="geometry" />
        </mxCell>
        <mxCell id="-hIAZdkFqz0Q5zqzDOxr-46" style="edgeStyle=orthogonalEdgeStyle;rounded=0;orthogonalLoop=1;jettySize=auto;html=1;entryX=0.5;entryY=0.195;entryDx=0;entryDy=0;entryPerimeter=0;" parent="1" source="-hIAZdkFqz0Q5zqzDOxr-8" target="-hIAZdkFqz0Q5zqzDOxr-20" edge="1">
          <mxGeometry relative="1" as="geometry" />
        </mxCell>
        <mxCell id="-hIAZdkFqz0Q5zqzDOxr-50" style="edgeStyle=orthogonalEdgeStyle;rounded=0;orthogonalLoop=1;jettySize=auto;html=1;entryX=0.612;entryY=-0.019;entryDx=0;entryDy=0;entryPerimeter=0;" parent="1" source="-hIAZdkFqz0Q5zqzDOxr-8" target="-hIAZdkFqz0Q5zqzDOxr-21" edge="1">
          <mxGeometry relative="1" as="geometry" />
        </mxCell>
        <mxCell id="-hIAZdkFqz0Q5zqzDOxr-53" style="edgeStyle=orthogonalEdgeStyle;rounded=0;orthogonalLoop=1;jettySize=auto;html=1;entryX=0;entryY=0.5;entryDx=0;entryDy=0;" parent="1" source="-hIAZdkFqz0Q5zqzDOxr-51" target="-hIAZdkFqz0Q5zqzDOxr-21" edge="1">
          <mxGeometry relative="1" as="geometry" />
        </mxCell>
        <mxCell id="-hIAZdkFqz0Q5zqzDOxr-51" value="DevOps Pipeline" style="sketch=0;points=[[0,0,0],[0.25,0,0],[0.5,0,0],[0.75,0,0],[1,0,0],[0,1,0],[0.25,1,0],[0.5,1,0],[0.75,1,0],[1,1,0],[0,0.25,0],[0,0.5,0],[0,0.75,0],[1,0.25,0],[1,0.5,0],[1,0.75,0]];outlineConnect=0;fontColor=#232F3E;fillColor=#01A88D;strokeColor=#ffffff;dashed=0;verticalLabelPosition=bottom;verticalAlign=top;align=center;html=1;fontSize=12;fontStyle=0;aspect=fixed;shape=mxgraph.aws4.resourceIcon;resIcon=mxgraph.aws4.devops_guru;" parent="1" vertex="1">
          <mxGeometry x="-10" y="492" width="78" height="78" as="geometry" />
        </mxCell>
        <mxCell id="-hIAZdkFqz0Q5zqzDOxr-56" style="edgeStyle=orthogonalEdgeStyle;rounded=0;orthogonalLoop=1;jettySize=auto;html=1;" parent="1" source="-hIAZdkFqz0Q5zqzDOxr-54" target="-hIAZdkFqz0Q5zqzDOxr-23" edge="1">
          <mxGeometry relative="1" as="geometry" />
        </mxCell>
        <mxCell id="-hIAZdkFqz0Q5zqzDOxr-54" value="DevOps Pipeline" style="sketch=0;points=[[0,0,0],[0.25,0,0],[0.5,0,0],[0.75,0,0],[1,0,0],[0,1,0],[0.25,1,0],[0.5,1,0],[0.75,1,0],[1,1,0],[0,0.25,0],[0,0.5,0],[0,0.75,0],[1,0.25,0],[1,0.5,0],[1,0.75,0]];outlineConnect=0;fontColor=#232F3E;fillColor=#01A88D;strokeColor=#ffffff;dashed=0;verticalLabelPosition=bottom;verticalAlign=top;align=center;html=1;fontSize=12;fontStyle=0;aspect=fixed;shape=mxgraph.aws4.resourceIcon;resIcon=mxgraph.aws4.devops_guru;" parent="1" vertex="1">
          <mxGeometry x="670" y="546" width="78" height="78" as="geometry" />
        </mxCell>
      </root>
    </mxGraphModel>
  </diagram>
</mxfile>
